<?xml version="1.0" encoding="UTF-8"?>
<svg width="90px" height="58px" viewBox="0 0 90 58" version="1.1" xmlns="http://www.w3.org/2000/svg" xmlns:xlink="http://www.w3.org/1999/xlink">
    <!-- Generator: Sketch 47.1 (45422) - http://www.bohemiancoding.com/sketch -->
    <title>logo_big</title>
    <desc>Created with Sketch.</desc>
    <defs>
        <linearGradient x1="13.2185704%" y1="-5.32747793%" x2="80.5006835%" y2="112.537717%" id="linearGradient-1">
            <stop stop-color="#F5C60B" offset="0%"></stop>
            <stop stop-color="#F5C30A" offset="51%"></stop>
            <stop stop-color="#F4C108" offset="100%"></stop>
        </linearGradient>
        <linearGradient x1="24.4209501%" y1="27.9769115%" x2="86.9559187%" y2="96.5151179%" id="linearGradient-2">
            <stop stop-color="#F4B908" offset="0%"></stop>
            <stop stop-color="#F2BB06" offset="51%"></stop>
            <stop stop-color="#F0B503" offset="100%"></stop>
        </linearGradient>
        <linearGradient x1="94.7995005%" y1="10.5189903%" x2="12.0067982%" y2="96.5279098%" id="linearGradient-3">
            <stop stop-color="#F9CF0F" offset="0%"></stop>
            <stop stop-color="#F7C70B" offset="51%"></stop>
            <stop stop-color="#F4C003" offset="100%"></stop>
        </linearGradient>
        <linearGradient x1="-9.33662553%" y1="5.98767809%" x2="111.161487%" y2="87.6877166%" id="linearGradient-4">
            <stop stop-color="#F7C80C" offset="0%"></stop>
            <stop stop-color="#F4C109" offset="39%"></stop>
            <stop stop-color="#F1B803" offset="83%"></stop>
            <stop stop-color="#F1B804" offset="100%"></stop>
        </linearGradient>
        <linearGradient x1="86.8696313%" y1="9.18943203%" x2="8.6477477%" y2="94.7755901%" id="linearGradient-5">
            <stop stop-color="#FCD613" offset="0%"></stop>
            <stop stop-color="#F9D00F" offset="49%"></stop>
            <stop stop-color="#F7CA0C" offset="66%"></stop>
            <stop stop-color="#F4C107" offset="100%"></stop>
        </linearGradient>
        <linearGradient x1="41.2917977%" y1="33.1732786%" x2="67.826061%" y2="78.3457955%" id="linearGradient-6">
            <stop stop-color="#FAD612" offset="0%"></stop>
            <stop stop-color="#FAD112" offset="49%"></stop>
            <stop stop-color="#F9D012" offset="100%"></stop>
        </linearGradient>
        <linearGradient x1="49.1971199%" y1="-1.53221042%" x2="50.0848834%" y2="62.1745145%" id="linearGradient-7">
            <stop stop-color="#FAD612" offset="0%"></stop>
            <stop stop-color="#FAD612" stop-opacity="0" offset="65%"></stop>
        </linearGradient>
    </defs>
    <g id="Page-1" stroke="none" stroke-width="1" fill="none" fill-rule="evenodd">
        <g id="logo_big" fill-rule="nonzero">
            <g id="Group" opacity="0.15" fill="#FDD536">
                <path d="M88.0607719,25.1092623 C88.1170493,24.9500169 88.1717636,24.7938939 88.2249145,24.6408933 L88.2249145,24.5846891 C88.2749389,24.4316885 88.3234001,24.2755655 88.370298,24.11632 L88.3984367,24.0179626 C88.4406448,23.8774519 88.482853,23.7369412 88.5250611,23.5917468 L88.5672692,23.4465524 C88.6047875,23.3200927 88.637616,23.1889494 88.6704446,23.0624898 L88.7220322,22.8564074 C88.750171,22.7439989 88.7783097,22.636274 88.8064485,22.5238654 L88.8767953,22.2241093 L88.9330728,21.97119 C88.9737176,21.7838424 89.011236,21.5964948 89.0456277,21.4091472 C89.1961538,20.6402366 88.9965242,19.8442942 88.5008427,19.2370371 C88.0051612,18.6297799 87.2647634,18.2740989 86.4803127,18.2663912 C86.3006588,18.2670727 86.1215349,18.2859033 85.9456766,18.3225955 C84.3330322,18.6528581 82.6910477,18.8191969 81.0448461,18.8190666 C78.599143,18.8214017 76.1672164,18.4534551 73.8319492,17.7277668 C73.2583607,17.0290789 72.6478185,16.361483 72.0029311,15.7278312 C69.1992266,12.9701723 65.7829964,10.9128296 62.0324377,9.72334054 L61.2961407,9.5032071 C61.2961407,9.24092046 61.2961407,8.98331751 61.2961407,8.73039825 L61.2961407,8.55241802 C61.2961407,8.33228459 61.2961407,8.11215116 61.2961407,7.88733404 C61.2961407,7.52512867 61.2961407,7.15980085 61.2961407,6.79135057 C61.2961407,5.71410186 61.3758671,4.61811839 61.4696629,3.51276753 C61.4884221,3.30356271 61.5071812,3.09591912 61.5259404,2.88983676 C61.530729,2.796224 61.530729,2.70242812 61.5259404,2.60881536 C61.5245727,2.4786039 61.5136001,2.34867006 61.4931119,2.22006908 L61.4931119,2.18728325 C61.4931119,2.12639528 61.4931119,2.06550731 61.4555936,2.00930303 L61.4321446,1.91562923 C61.4321446,1.87347602 61.4086957,1.82663912 61.3946263,1.78448591 C61.3805569,1.7423327 61.3383488,1.62992414 61.3055203,1.55966879 C60.8719811,0.606911795 59.9194009,-0.00348631874 58.8715193,-2.95346836e-16 C58.4513796,0.000943019525 58.0377591,0.103811808 57.6662433,0.299756163 L57.0518808,0.627614466 L56.4375183,0.96484015 C56.1592574,1.12096315 55.8841231,1.27708615 55.6121153,1.43320915 L55.5839766,1.43320915 L54.7914021,1.90157816 L54.7914021,1.90157816 C51.4549625,3.99548072 48.4514321,6.5767359 45.8808012,9.55941138 C45.6650708,9.81233065 45.4680997,10.0277804 45.2805081,10.276016 C45.0929165,10.5242515 44.858427,10.7959056 44.6426966,11.0722433 C44.4269663,10.7959056 44.2159257,10.5289352 44.0048852,10.276016 C43.7938447,10.0230967 43.6203224,9.80764696 43.4045921,9.55941138 C40.4205042,6.10850432 36.8597856,3.20056308 32.8807035,0.96484015 L32.266341,0.627614466 L31.6707377,0.299756163 C31.4931835,0.208886175 31.3059853,0.138189019 31.1126527,0.0889901109 L31.1126527,0.0889901109 L30.9109917,0.0421532104 L30.8500244,0.0421532104 C30.7169282,0.0173575265 30.5820553,0.00326127551 30.4467025,-5.61582844e-16 C29.4118083,0.00847880477 28.4755009,0.614825916 28.04553,1.5549851 C27.8954931,1.8878387 27.8172001,2.24847588 27.8157303,2.61349905 C27.8109417,2.70711181 27.8109417,2.80090769 27.8157303,2.89452045 C27.8344895,3.10372527 27.8532487,3.31136886 27.8720078,3.51745122 C27.9939424,4.9881299 28.0549096,6.45880857 28.0549096,7.88733404 C28.0549096,8.10746747 28.0549096,8.3276009 28.0549096,8.55241802 L28.0549096,8.73039825 C28.0549096,8.98331751 28.0549096,9.24092046 28.0549096,9.5032071 L27.3186126,9.72334054 C23.8526818,10.817618 20.6676674,12.6542118 17.9859306,15.1049004 C17.0904476,15.9245186 16.2550782,16.8073244 15.4862726,17.7465016 C13.1510053,18.4721899 10.7190788,18.8401365 8.27337567,18.8378014 C6.62717412,18.8379316 4.98518956,18.6715929 3.37254519,18.3413302 C3.19733422,18.2983327 3.01820245,18.2732241 2.83790914,18.2663912 C2.05034028,18.267423 1.30434749,18.6195196 0.803556638,19.226573 C0.302765787,19.8336263 0.0994642354,20.6322542 0.24914509,21.4044635 C0.317928676,21.7729138 0.396091842,22.1382416 0.483634587,22.500447 L0.483634587,22.5426002 L0.483634587,22.6737435 C1.9047014,28.4519238 5.34586897,33.5330451 10.18681,37.0011514 C10.7542745,37.4133161 11.3451881,37.8020624 11.9454812,38.1673902 C12.9115779,47.1834935 19.0552027,53.8905377 27.4499267,57.1410186 C29.0039864,57.7230329 30.736231,56.9366731 31.3190034,55.3846348 C31.9017758,53.8325964 31.1143919,52.1026049 29.5603322,51.5205905 C27.2360872,50.673335 25.0893696,49.4028607 23.2291158,47.7736385 C21.958698,46.6753136 20.8753227,45.3782197 20.0212995,43.9330126 C19.1570385,42.3778278 18.6507702,40.6497943 18.5393258,38.8746274 C18.4877382,38.2516966 18.4642892,37.6287658 18.4408403,37.0011514 C18.4078933,35.9626952 17.8661539,35.0066921 16.9916952,34.4438566 L16.1381534,33.9567528 C15.8255007,33.78814 15.5128481,33.6085985 15.2001954,33.4181285 C12.5988661,31.7796438 10.4560666,29.5091035 8.97215437,26.8188092 L8.97215437,26.8188092 C8.76580362,26.4487977 8.57352223,26.0741025 8.4,25.6900399 C8.3452996,25.5757066 8.37861039,25.438723 8.47972643,25.3621816 L8.47972643,25.3621816 C8.51685364,25.3345208 8.56043872,25.3167871 8.60635076,25.310661 L8.64386908,25.310661 C9.71302289,25.3099378 10.7811421,25.2442448 11.8423058,25.113946 L11.9736199,25.113946 C12.4144602,25.0343233 12.9584758,24.9547006 13.5446996,24.8703941 C13.8776746,24.8095062 14.2059599,24.7392508 14.5295554,24.6643118 L15.209575,24.4956989 C15.6035173,24.3926578 15.9974597,24.2802492 16.3867123,24.1584733 L16.5555447,24.1069527 L16.616512,24.1069527 L17.2214949,23.905554 C17.7236416,23.7331222 18.1574529,23.4049047 18.4595994,22.968816 C20.7522353,19.5101439 24.1616879,16.9398512 28.1205667,15.685678 C28.3878847,15.6013715 28.6645823,15.5217488 28.9319003,15.4514935 C29.4008793,15.3344012 29.8370298,15.2360437 30.2919394,15.1517373 C31.9871983,14.8457222 33.2559392,13.4260399 33.3684416,11.7092251 C33.4153395,11.0394574 33.4528578,10.3603224 33.4763068,9.68118733 C33.4763068,9.46886004 33.4763068,9.25653276 33.4763068,9.04420548 C33.4763068,8.9880012 33.4763068,8.93179692 33.4763068,8.87559264 C33.4763068,8.6601429 33.4763068,8.44781561 33.4763068,8.23861079 L33.5044455,8.23861079 C33.5044455,8.10278378 33.5044455,7.97164046 33.5044455,7.84518083 L33.5044455,7.78429286 C33.4966425,7.74597098 33.5070312,7.7061996 33.5325843,7.67656799 C33.56129,7.64450142 33.6020771,7.62583161 33.6451392,7.6250474 C33.6786345,7.6252753 33.7106747,7.63874839 33.7342452,7.66251692 L33.7905227,7.71403751 L33.7905227,7.71403751 C34.3908158,8.21050865 34.9817294,8.73976563 35.5538837,9.27838998 L35.6758183,9.39079854 L35.882169,9.58282983 C36.262042,9.95284135 36.6372252,10.3322202 37.0030288,10.7209665 C38.1029275,11.8835654 39.1259002,13.1164199 40.0654617,14.4117143 C40.4812897,14.9862469 40.8814851,15.5732694 41.2660479,16.1727817 L41.2660479,16.1727817 L41.2097704,16.2758229 L41.2097704,16.2758229 C40.6047875,17.3764901 40.0513923,18.5099431 39.5589643,19.6527634 C39.1744016,20.6082362 38.8320469,21.5449742 38.5131412,22.4817122 C37.1051262,26.5818823 36.387242,30.8867505 36.3886663,35.2213491 C36.3887183,36.6168634 36.4622933,38.0114083 36.6090865,39.3992007 C36.6809966,40.0892643 36.7716659,40.7777668 36.8810943,41.464708 C37.0462525,43.001398 37.5786292,44.4759785 38.4334148,45.7643354 C40.3330947,48.3557808 43.6382649,49.5057738 46.7390327,48.6541722 L46.7390327,48.6541722 L46.8937958,48.612019 C47.6746053,48.3768372 48.4124946,48.0178608 49.0792379,47.5488213 C49.1964827,47.4645149 49.3137274,47.3802085 49.4262824,47.2912184 L49.4497313,47.2912184 C49.5654128,47.2006671 49.6764045,47.105432 49.7827064,47.0055133 L49.7827064,47.0055133 C50.6115672,46.2602949 51.2691192,45.3447542 51.7102101,44.3217589 C52.2240616,42.9462923 52.5398627,41.5049584 52.6481681,40.0408662 C52.8416041,38.4510319 52.9387032,36.8509797 52.938935,35.2494513 C52.9419628,30.905159 52.2224502,26.590533 50.8097704,22.4817122 C50.4861749,21.5449742 50.1297509,20.6082362 49.7498779,19.7277025 C49.2433806,18.5474126 48.6665364,17.3858575 48.0427943,16.2477208 C48.4273571,15.645086 48.8291158,15.0565023 49.2480703,14.4819696 L49.5388373,14.0932233 C50.3956164,12.9334363 51.3195161,11.8246348 52.3058134,10.7724871 C52.671617,10.3837408 53.0421104,10.0043619 53.4266732,9.63435043 L53.6330239,9.44231913 L53.7549585,9.32991057 C54.1817294,8.92711323 54.6225696,8.52899957 55.0680997,8.14493699 L55.5370787,7.7655581 L55.5370787,7.7655581 L55.5933561,7.71403751 C55.6169266,7.69026898 55.6489669,7.67679589 55.6824621,7.67656799 C55.7255242,7.6773522 55.7663114,7.69602201 55.7950171,7.72808858 C55.8205702,7.75772019 55.8309588,7.79749157 55.8231558,7.83581345 L55.8231558,7.89670142 C55.8231558,8.26671293 55.8231558,8.65077552 55.8231558,9.07699131 C55.8231558,9.28931859 55.8231558,9.50164587 55.8231558,9.71397316 C55.8231558,10.3884245 55.8841231,11.0722433 55.931021,11.7420109 C56.0517793,13.4516525 57.3186583,14.8615366 59.0075232,15.1657884 C59.4765022,15.2454111 59.9173425,15.3484523 60.3675623,15.4655445 C60.6395701,15.5357999 60.9115779,15.6154226 61.1788959,15.699729 C65.1249663,16.9355034 68.5311509,19.4781453 70.8351734,22.907928 C71.13732,23.3440168 71.5711312,23.6722342 72.073278,23.844666 L72.6595017,24.041381 L72.7345383,24.0647995 L72.8705423,24.1069527 C73.2691744,24.2334123 73.6771861,24.3505046 74.0805081,24.4535457 L74.7605276,24.6221586 L75.3889595,24.7579856 C76.0173913,24.8891289 76.6598925,24.9921701 77.297704,25.0764765 C78.4112643,25.2196344 79.532845,25.2915975 80.6555936,25.2919262 C80.7490637,25.291055 80.8362004,25.3390066 80.8853933,25.4183859 C80.8994312,25.4402336 80.9104724,25.4638626 80.9182218,25.4886412 L80.9182218,25.4886412 L80.9182218,25.5261108 L80.9182218,25.5261108 C80.9189064,25.5370287 80.9189064,25.5479787 80.9182218,25.5588966 C80.9182218,25.5588966 80.9182218,25.5588966 80.9182218,25.5588966 C80.9189064,25.5698145 80.9189064,25.5807645 80.9182218,25.5916824 L80.9182218,25.5916824 C80.9198283,25.6088185 80.9198283,25.6260669 80.9182218,25.643203 L80.7446996,26.0038471 L80.5758671,26.3410728 L80.5758671,26.3410728 C80.0763736,27.3064979 79.4909161,28.2250819 78.8265755,29.0857152 L78.8265755,29.0857152 C78.7015144,29.2480831 78.5733268,29.4042061 78.4420127,29.5540842 C77.2071858,31.0466895 75.7410514,32.3322369 74.0992672,33.3619242 L72.3921837,34.3501828 C71.4678964,34.918295 70.8969767,35.9174288 70.8773815,37.0011514 C70.9005138,38.6242014 70.6920702,40.2422698 70.2583293,41.8066174 C69.8035252,43.1430174 69.1248017,44.3925883 68.2510992,45.5020488 C66.252124,48.011384 63.645279,49.9700199 60.6770884,51.1927322 C60.3800684,51.3176306 60.0814851,51.4362841 59.7813385,51.5486926 C58.7760382,51.9251899 58.0482228,52.8087115 57.8720535,53.8664434 C57.6958842,54.9241754 58.0981252,55.9954229 58.9272562,56.6766575 C59.7563873,57.3578921 60.8864437,57.545618 61.891744,57.1691207 C70.2677088,53.8905377 76.4066439,47.1975446 77.3680508,38.1814413 C77.9683439,37.8207971 78.5592574,37.4273672 79.126722,37.0152024 C83.0874968,34.1588777 86.1246823,30.2073685 87.8638007,25.6478867 L87.8638007,25.6478867 C87.9263312,25.4823963 87.9872985,25.3153447 88.0467025,25.1467319 L88.0607719,25.1092623 Z M43.9767465,24.8703941 C44.1893503,24.2146775 44.4175867,23.5745732 44.6614558,22.9500812 C44.9147044,23.6120428 45.1476307,24.2802492 45.3602345,24.9547006 C45.7166585,26.0787862 46.0168051,27.2216065 46.2559844,28.3691106 C46.5850172,29.9280004 46.8121699,31.506614 46.9360039,33.0949539 C47.0110405,34.0504266 47.0485589,35.0074606 47.0485589,35.9660559 C47.0485589,36.1534035 47.0485589,36.3407511 47.0485589,36.5280987 C47.0485589,36.7154463 47.0485589,36.9027939 47.0485589,37.0901415 C47.0485589,37.2774891 47.0485589,37.4632754 47.0485589,37.6475006 C47.0485589,37.8317257 47.0391793,38.0175121 47.0204201,38.2048597 C47.0204201,38.3890848 47.007914,38.57331 46.9829018,38.7575351 C46.9578896,38.9417603 46.942257,39.1259854 46.9360039,39.3102106 C46.9203713,39.4944357 46.9031754,39.6770996 46.8844162,39.8582023 C46.8656571,40.039305 46.8484612,40.195428 46.8328285,40.3265713 L46.8328285,40.406194 L46.8328285,40.5888579 C46.8328285,40.7106339 46.8046898,40.8324098 46.7859306,40.9541858 C46.7671715,41.0759617 46.7577919,41.1790029 46.7484123,41.3007788 L46.7484123,41.3710342 C46.7484123,41.4319221 46.7484123,41.4881264 46.7484123,41.5349633 C46.7363623,41.6075113 46.7207104,41.6794165 46.7015144,41.7504131 L46.7015144,41.7878826 C46.6706951,41.8893174 46.6314782,41.9880154 46.5842697,42.0829551 L46.509233,42.2187821 L46.509233,42.2187821 L46.509233,42.2187821 L46.4341964,42.3311906 L46.3872985,42.3873949 L46.3357108,42.4576503 L46.3357108,42.4576503 L46.2372252,42.5700588 C46.1865381,42.6210887 46.1333203,42.6695477 46.0777723,42.7152532 L45.9980459,42.7808249 C45.824126,42.9110657 45.6311415,43.0137515 45.4258915,43.0852647 L45.2617489,43.1367853 L45.1069858,43.1695712 C44.8934571,43.2131008 44.6733236,43.2131008 44.4597948,43.1695712 L44.3050318,43.1367853 L44.1408891,43.0852647 C43.9356392,43.0137515 43.7426547,42.9110657 43.5687347,42.7808249 L43.4890083,42.7152532 C43.4334603,42.6695477 43.3802425,42.6210887 43.3295554,42.5700588 L43.2310699,42.4576503 L43.2310699,42.4576503 L43.1794822,42.3873949 L43.1325843,42.3311906 L42.9262335,42.2328331 L42.9262335,42.2328331 L42.9262335,42.2328331 L42.8511969,42.0970061 C42.8039883,42.0020665 42.7647714,41.9033685 42.7339521,41.8019337 L42.7339521,41.7644641 C42.7147561,41.6934676 42.6991042,41.6215624 42.6870542,41.5490144 C42.6870542,41.5021775 42.6870542,41.4459732 42.6870542,41.3850852 L42.6870542,41.3148299 C42.6870542,41.193054 42.6636053,41.0759617 42.6495359,40.9682368 C42.6354665,40.860512 42.6167074,40.724685 42.602638,40.602909 L42.602638,40.4202451 L42.602638,40.3406224 C42.5838788,40.1844994 42.566683,40.0283764 42.5510503,39.8722534 C42.5354177,39.7161304 42.5182218,39.5334665 42.4994626,39.3242616 C42.48383,39.1400365 42.4681974,38.9558113 42.4525647,38.7715862 C42.4369321,38.5873611 42.424426,38.4031359 42.4150464,38.2189108 C42.4150464,38.0346856 42.4056668,37.8488993 42.3869077,37.6615517 C42.3681485,37.4742041 42.3681485,37.2884177 42.3869077,37.1041925 C42.3869077,36.9168449 42.3869077,36.7294973 42.3869077,36.5421497 C42.3869077,36.3548021 42.3869077,36.1674545 42.3869077,35.9801069 C42.3869077,35.0215117 42.424426,34.0644777 42.4994626,33.1090049 C42.5851235,31.5152884 42.77468,29.9288401 43.0669272,28.3597432 C43.3107963,27.2122392 43.6109428,26.0694188 43.9626771,24.9453332 L43.986126,24.8750778 L43.9767465,24.8703941 Z" id="Shape"></path>
            </g>
            <path d="M86.4803127,18.2663912 C86.3006588,18.2670727 86.1215349,18.2859033 85.9456766,18.3225955 C84.3330322,18.6528581 82.6910477,18.8191969 81.0448461,18.8190666 C78.599143,18.8214017 76.1672164,18.4534551 73.8319492,17.7277668 C73.2583607,17.0290789 72.6478185,16.361483 72.0029311,15.7278312 C69.1992266,12.9701723 65.7829964,10.9128296 62.0324377,9.72334054 L61.2961407,9.5032071 C61.2961407,9.24092046 61.2961407,8.98331751 61.2961407,8.73039825 L61.2961407,8.55241802 C61.2961407,8.33228459 61.2961407,8.11215116 61.2961407,7.88733404 C61.2961407,7.52512867 61.2961407,7.15980085 61.2961407,6.79135057 C61.2961407,5.71410186 61.3758671,4.61811839 61.4696629,3.51276753 C61.4884221,3.30356271 61.5071812,3.09591912 61.5259404,2.88983676 C61.530729,2.796224 61.530729,2.70242812 61.5259404,2.60881536 C61.5234147,1.96165737 61.2792634,1.3387123 60.8412311,0.861798969 C60.3364907,0.30891578 59.6206662,-0.00427563986 58.8715193,8.52792771e-17 C58.4513796,0.000943019525 58.0377591,0.103811808 57.6662433,0.299756163 L57.0518808,0.627614466 L56.4375183,0.96484015 C55.8778701,1.27708615 55.3276014,1.60494446 54.7867123,1.94841506 L54.7867123,8.39317256 L55.0680997,8.14493699 L55.5370787,7.7655581 L55.5370787,7.7655581 L55.5933561,7.71403751 C55.6169266,7.69026898 55.6489669,7.67679589 55.6824621,7.67656799 C55.7255242,7.6773522 55.7663114,7.69602201 55.7950171,7.72808858 C55.8205702,7.75772019 55.8309588,7.79749157 55.8231558,7.83581345 L55.8231558,7.89670142 C55.8231558,8.26671293 55.8231558,8.65077552 55.8231558,9.07699131 C55.8231558,9.28931859 55.8231558,9.50164587 55.8231558,9.71397316 C55.8231558,10.3884245 55.8841231,11.0722433 55.931021,11.7420109 C56.0517793,13.4516525 57.3186583,14.8615366 59.0075232,15.1657884 C59.4765022,15.2454111 59.9173425,15.3484523 60.3675623,15.4655445 C60.6395701,15.5357999 60.9115779,15.6154226 61.1788959,15.699729 C65.1249663,16.9355034 68.5311509,19.4781453 70.8351734,22.907928 C71.13732,23.3440168 71.5711312,23.6722342 72.073278,23.844666 L72.6595017,24.041381 L72.7345383,24.0647995 L72.8705423,24.1069527 C73.2691744,24.2334123 73.6771861,24.3505046 74.0805081,24.4535457 L74.7605276,24.6221586 L75.3889595,24.7579856 C76.0173913,24.8891289 76.6598925,24.9921701 77.297704,25.0764765 C78.4112643,25.2196344 79.532845,25.2915975 80.6555936,25.2919262 C80.7482404,25.2916094 80.834678,25.3384094 80.8849695,25.4161177 C80.935261,25.4938259 80.9424898,25.5917552 80.9041524,25.6759888 C80.7962872,25.9101733 80.6790425,26.1443578 80.5617978,26.3738587 L87.8497313,25.6244682 C88.3709708,24.2569728 88.7711356,22.8464635 89.0456277,21.4091472 C89.1961538,20.6402366 88.9965242,19.8442942 88.5008427,19.2370371 C88.0051612,18.6297799 87.2647634,18.2740989 86.4803127,18.2663912 L86.4803127,18.2663912 Z" id="Shape" fill="url(#linearGradient-1)"></path>
            <path d="M29.541573,51.5486926 C27.2218342,50.6908942 25.0814944,49.4109017 23.2291158,47.7736385 C21.958698,46.6753136 20.8753227,45.3782197 20.0212995,43.9330126 C19.1570385,42.3778278 18.6507702,40.6497943 18.5393258,38.8746274 C18.4877382,38.2516966 18.4642892,37.6287658 18.4408403,37.0011514 C18.4078933,35.9626952 17.8661539,35.0066921 16.9916952,34.4438566 L16.1381534,33.9567528 C15.8255007,33.78814 15.5128481,33.6085985 15.2001954,33.4181285 C12.5988661,31.7796438 10.4560666,29.5091035 8.97215437,26.8188092 L8.97215437,26.8188092 C8.76580362,26.4487977 8.57352223,26.0741025 8.4,25.6900399 C8.35403234,25.6086374 8.35403234,25.5091557 8.4,25.4277533 C8.44362689,25.3614859 8.51365978,25.3171325 8.59228139,25.3059773 C8.26868588,23.9851767 7.81377626,22.1444865 7.54645823,21.2592691 C7.11968735,19.7885904 -0.219833903,16.8612842 0.497703957,22.4348753 C0.497703957,22.5144981 0.497703957,22.5941208 0.530532487,22.6737435 C1.93955865,28.4449781 5.36343036,33.5251145 10.18681,37.0011514 C10.7542745,37.4133161 11.3451881,37.8020624 11.9454812,38.1673902 C12.9115779,47.1834935 19.0552027,53.8905377 27.4499267,57.1410186 C29.0039864,57.7230329 30.736231,56.9366731 31.3190034,55.3846348 C31.9017758,53.8325964 31.1143919,52.1026049 29.5603322,51.5205905 L29.541573,51.5486926 Z" id="Shape" fill="url(#linearGradient-2)"></path>
            <path d="M86.4803127,18.2663912 C86.3006588,18.2670727 86.1215349,18.2859033 85.9456766,18.3225955 L85.3641426,18.435004 C84.1823156,19.1469249 83.4225696,21.0204009 82.7472399,22.2709462 C82.3392281,23.029704 81.6357596,24.2661981 80.9369809,25.4792739 C80.9612875,25.5409828 80.9612875,25.6095962 80.9369809,25.6713051 C80.3689584,26.8933064 79.665805,28.0479943 78.8406448,29.1138173 L78.8406448,29.1138173 C78.7155838,29.2761852 78.5873962,29.4323083 78.4560821,29.5821863 C77.2212552,31.0747916 75.7551208,32.3603391 74.1133366,33.3900263 L72.4062531,34.3782849 C71.4848414,34.9376653 70.9094772,35.9247354 70.8773815,37.0011514 C70.9005138,38.6242014 70.6920702,40.2422698 70.2583293,41.8066174 C69.8035252,43.1430174 69.1248017,44.3925883 68.2510992,45.5020488 C66.252124,48.011384 63.645279,49.9700199 60.6770884,51.1927322 C60.3800684,51.3176306 60.0814851,51.4362841 59.7813385,51.5486926 C58.7760382,51.9251899 58.0482228,52.8087115 57.8720535,53.8664434 C57.6958842,54.9241754 58.0981252,55.9954229 58.9272562,56.6766575 C59.7563873,57.3578921 60.8864437,57.545618 61.891744,57.1691207 C70.2677088,53.8905377 76.4066439,47.1975446 77.3680508,38.1814413 C77.9683439,37.8207971 78.5592574,37.4273672 79.126722,37.0152024 C84.3146679,33.2777582 87.869782,27.695543 89.0596971,21.4185146 C89.2138444,20.6458022 89.0139335,19.8447328 88.5147027,19.2346504 C88.0154719,18.624568 87.2692315,18.2693981 86.4803127,18.2663912 L86.4803127,18.2663912 Z" id="Shape" fill="url(#linearGradient-3)"></path>
            <path d="M46.8984856,48.6073353 C47.6792951,48.3721535 48.4171844,48.0131771 49.0839277,47.5441377 C50.2435556,46.7229115 51.1539253,45.5981793 51.7148999,44.2936568 C52.2287514,42.9181901 52.5445525,41.4768562 52.6528578,40.0127641 C52.8463053,38.4229308 52.9434045,36.8228779 52.9436248,35.2213491 C52.9420306,30.8862258 52.2209746,26.5813435 50.8097704,22.4817122 C50.4861749,21.5449742 50.1297509,20.6082362 49.7498779,19.7277025 C49.2433806,18.5474126 48.6665364,17.3858575 48.0427943,16.2477208 C48.4273571,15.645086 48.8291158,15.0565023 49.2480703,14.4819696 C49.3465559,14.3414589 49.4544211,14.2103156 49.5575965,14.0698049 C48.3663898,12.5382383 47.1189057,10.9410999 45.9886663,9.51725817 L45.9042501,9.61561566 C45.6885198,9.86853493 45.4915486,10.0839847 45.303957,10.3322202 C45.1163654,10.5804558 44.8818759,10.8521098 44.6661456,11.1284475 C44.4504152,10.8521098 44.2393747,10.5851395 44.0283341,10.3322202 C43.8172936,10.079301 43.6437714,9.86385124 43.428041,9.61561566 C40.4416741,6.14248853 36.8725958,3.21518155 32.8807035,0.96484015 L32.266341,0.627614466 L31.6707377,0.299756163 C31.3443221,0.126102198 30.9845987,0.0239139582 30.6155349,0 C27.332682,0.562042806 27.7688324,5.47523366 31.9849536,7.44238348 C32.5082663,7.68855541 33.0157431,7.96699176 33.5044455,8.27608031 C33.5044455,8.1402533 33.5044455,8.00910998 33.5044455,7.88265035 L33.5044455,7.82176238 C33.4966425,7.7834405 33.5070312,7.74366912 33.5325843,7.71403751 C33.56129,7.68197094 33.6020771,7.66330113 33.6451392,7.66251692 C33.6786345,7.66274482 33.7106747,7.67621791 33.7342452,7.69998644 L33.7905227,7.75150703 L33.7905227,7.75150703 C34.3908158,8.24797817 34.9817294,8.77723515 35.5538837,9.3158595 L35.6758183,9.42826806 L35.882169,9.62029935 C36.262042,9.99031087 36.6372252,10.3696898 37.0030288,10.758436 C38.1029275,11.9210349 39.1259002,13.1538894 40.0654617,14.4491838 C40.4844162,15.0268389 40.8861749,15.6154226 41.2707377,16.2149349 L41.2144602,16.3179761 C42.6723012,18.9620041 43.6099323,21.8602695 43.9767465,24.8563431 C44.1893503,24.2099938 44.4175867,23.5745732 44.6614558,22.9500812 C44.9147044,23.6120428 45.1476307,24.2802492 45.3602345,24.9547006 C45.7166585,26.0787862 46.0168051,27.2216065 46.2559844,28.3691106 C46.5850172,29.9280004 46.8121699,31.506614 46.9360039,33.0949539 C47.0110405,34.0504266 47.0485589,35.0074606 47.0485589,35.9660559 C47.0485589,36.1534035 47.0485589,36.3407511 47.0485589,36.5280987 C47.0485589,36.7154463 47.0485589,36.9027939 47.0485589,37.0901415 C47.0485589,37.2774891 47.0485589,37.4632754 47.0485589,37.6475006 C47.0485589,37.8317257 47.0391793,38.0175121 47.0204201,38.2048597 C47.0204201,38.3890848 47.007914,38.57331 46.9829018,38.7575351 C46.9578896,38.9417603 46.942257,39.1259854 46.9360039,39.3102106 C46.9203713,39.4944357 46.9031754,39.6770996 46.8844162,39.8582023 C46.8656571,40.039305 46.8484612,40.195428 46.8328285,40.3265713 L46.8328285,40.406194 L46.8328285,40.5888579 C46.8328285,40.7106339 46.8046898,40.8324098 46.7859306,40.9541858 C46.7671715,41.0759617 46.7577919,41.1790029 46.7484123,41.3007788 L46.7484123,41.3710342 C46.7484123,41.4319221 46.7484123,41.4881264 46.7484123,41.5349633 C46.7363623,41.6075113 46.7207104,41.6794165 46.7015144,41.7504131 L46.7015144,41.7878826 C46.6706951,41.8893174 46.6314782,41.9880154 46.5842697,42.0829551 L46.509233,42.2187821 L46.509233,42.2187821 L46.509233,42.2187821 L46.4341964,42.3311906 L46.3872985,42.3873949 L46.3357108,42.4576503 L46.3357108,42.4576503 L46.2372252,42.5700588 C46.1865381,42.6210887 46.1333203,42.6695477 46.0777723,42.7152532 L45.9980459,42.7808249 C45.824126,42.9110657 45.6311415,43.0137515 45.4258915,43.0852647 L45.2617489,43.1367853 L45.1069858,43.1695712 C44.8934571,43.2131008 44.6733236,43.2131008 44.4597948,43.1695712 L44.3050318,43.1367853 L44.1408891,43.0852647 C43.9356392,43.0137515 43.7426547,42.9110657 43.5687347,42.7808249 L43.4890083,42.7152532 C43.4334603,42.6695477 43.3802425,42.6210887 43.3295554,42.5700588 L43.2310699,42.4576503 L43.2310699,42.4576503 L43.1794822,42.3873949 L43.1325843,42.3311906 L42.9262335,42.2328331 L42.9262335,42.2328331 L42.9262335,42.2328331 L42.8511969,42.0970061 C42.8039883,42.0020665 42.7647714,41.9033685 42.7339521,41.8019337 L42.7339521,41.7644641 C42.7147561,41.6934676 42.6991042,41.6215624 42.6870542,41.5490144 C42.6870542,41.5021775 42.6870542,41.4459732 42.6870542,41.3850852 L42.6870542,41.3148299 C42.6870542,41.193054 42.6636053,41.0759617 42.6495359,40.9682368 C42.6354665,40.860512 42.6167074,40.724685 42.602638,40.602909 L42.602638,40.4202451 L42.602638,40.3406224 C42.5838788,40.1844994 42.566683,40.0283764 42.5510503,39.8722534 C42.5510503,39.7504774 42.5276014,39.6333852 42.5182218,39.5116092 C42.4197362,39.7926306 42.3634587,39.9425087 42.3634587,39.9425087 C42.3634587,39.9425087 41.9882755,44.4950554 43.7563263,46.9774112 C44.1924768,47.5956582 45.3086468,48.1577011 46.7437225,48.6541722 L46.8984856,48.6073353 Z" id="Shape" fill="url(#linearGradient-4)"></path>
            <path d="M60.8224719,3.92024857 C61.1895767,3.50288084 61.4245831,2.98621328 61.4978017,2.43551882 C61.4766992,2.1313539 61.4020846,1.83328355 61.2773815,1.5549851 C60.8466958,0.613298375 59.9081151,0.00666386478 58.8715193,0 C58.4513796,0.000943019525 58.0377591,0.103811808 57.6662433,0.299756163 L57.0518808,0.627614466 L56.4375183,0.96484015 C52.4500854,3.21186461 48.8843091,6.13431191 45.8995603,9.60156459 C45.68383,9.85448386 45.4868588,10.0699336 45.2992672,10.3181692 C45.1116756,10.5664047 44.8771861,10.8380588 44.6614558,11.1143965 L44.6614558,11.1143965 L44.6614558,11.1143965 C43.2029311,13.4562415 42.0351734,14.9081854 41.2988764,16.2196186 L41.2988764,16.2196186 C40.6751343,17.3483879 40.0982902,18.5193104 39.5917929,19.6996003 C39.1744016,20.6082362 38.8320469,21.5449742 38.5131412,22.4817122 C37.1051262,26.5818823 36.387242,30.8867505 36.3886663,35.2213491 C36.3887183,36.6168634 36.4622933,38.0114083 36.6090865,39.3992007 C36.6809966,40.0892643 36.7716659,40.7777668 36.8810943,41.464708 C37.0462525,43.001398 37.5786292,44.4759785 38.4334148,45.7643354 C40.3637292,48.397402 43.7413896,49.5368166 46.8750366,48.612019 C47.9477278,48.2908125 48.9348278,47.7338905 49.7639472,46.9820949 L49.7639472,46.9820949 C43.7891549,48.1249152 42.9262335,42.476385 42.8746458,42.1532104 L42.8371275,42.0829551 C42.7899189,41.9880154 42.7507021,41.8893174 42.7198828,41.7878826 L42.7198828,41.7504131 C42.7006868,41.6794165 42.6850348,41.6075113 42.6729849,41.5349633 C42.6729849,41.4881264 42.6729849,41.4319221 42.6729849,41.3710342 L42.6729849,41.3007788 C42.6729849,41.1790029 42.6495359,41.0619106 42.6354665,40.9541858 C42.6213972,40.8464609 42.602638,40.7106339 42.5885686,40.5888579 L42.5885686,40.406194 L42.5885686,40.3265713 C42.5698095,40.1704483 42.5526136,40.0143253 42.5369809,39.8582023 C42.5213483,39.7020793 42.5041524,39.5194154 42.4853933,39.3102106 C42.4697606,39.1259854 42.454128,38.9417603 42.4384954,38.7575351 C42.4228627,38.57331 42.4103566,38.3890848 42.400977,38.2048597 C42.400977,38.0206346 42.3915975,37.8348482 42.3728383,37.6475006 C42.3540791,37.460153 42.3540791,37.2743666 42.3728383,37.0901415 C42.3728383,36.9027939 42.3728383,36.7154463 42.3728383,36.5280987 C42.3728383,36.3407511 42.3728383,36.1534035 42.3728383,35.9660559 C42.3728383,35.0074606 42.4103566,34.0504266 42.4853933,33.0949539 C42.5763102,31.5056346 42.7705643,29.9238971 43.0669272,28.3597432 C43.3107963,27.2122392 43.6109428,26.0694188 43.9626771,24.9453332 C44.0627259,24.6330872 44.1674646,24.3208412 44.276893,24.0085952 C44.3756317,23.6303765 44.4962046,23.2581815 44.6380068,22.8938769 C45.5713269,20.5883697 46.7141577,18.3730955 48.0521739,16.2758229 L48.0521739,16.2758229 C48.4367367,15.6731881 48.8384954,15.0846044 49.2574499,14.5100718 L49.3277968,14.416398 L49.5388373,14.1306929 L49.5388373,14.1306929 C50.3944368,12.9580792 51.3183576,11.8367409 52.3058134,10.7724871 C52.671617,10.3837408 53.0421104,10.0043619 53.4266732,9.63435043 L53.6330239,9.44231913 L53.7549585,9.32991057 C54.1817294,8.92711323 54.6225696,8.52899957 55.0680997,8.14493699 L55.5370787,7.7655581 L55.5370787,7.7655581 L55.5933561,7.71403751 C55.6169266,7.69026898 55.6489669,7.67679589 55.6824621,7.67656799 L55.6824621,7.67656799 C57.5255496,6.18247086 60.2784563,4.58064887 60.8224719,3.92024857 Z" id="Shape" fill="url(#linearGradient-5)"></path>
            <path d="M33.4575476,7.74213965 C33.3121641,4.65558791 33.6029311,1.71891425 32.2804104,0.688502437 C31.9200094,0.434197673 31.5252459,0.232341617 31.1079629,0.0889901109 C30.8923725,0.0306502247 30.6700656,0.000732927663 30.4467025,0 C29.4118083,0.00847880477 28.4755009,0.614825916 28.04553,1.5549851 C27.8954931,1.8878387 27.8172001,2.24847588 27.8157303,2.61349905 C27.8109417,2.70711181 27.8109417,2.80090769 27.8157303,2.89452045 C27.8344895,3.10372527 27.8532487,3.31136886 27.8720078,3.51745122 C27.9939424,4.9881299 28.0549096,6.45880857 28.0549096,7.88733404 C28.0549096,8.10746747 28.0549096,8.3276009 28.0549096,8.55241802 L28.0549096,8.73039825 C28.0549096,8.98331751 28.0549096,9.24092046 28.0549096,9.5032071 L27.3186126,9.72334054 C23.8526818,10.817618 20.6676674,12.6542118 17.9859306,15.1049004 C17.0904476,15.9245186 16.2550782,16.8073244 15.4862726,17.7465016 C13.1510053,18.4721899 10.7190788,18.8401365 8.27337567,18.8378014 C6.62717412,18.8379316 4.98518956,18.6715929 3.37254519,18.3413302 C3.19733422,18.2983327 3.01820245,18.2732241 2.83790914,18.2663912 C2.05034028,18.267423 1.30434749,18.6195196 0.803556638,19.226573 C0.302765787,19.8336263 0.0994642354,20.6322542 0.24914509,21.4044635 C0.317928676,21.7729138 0.396091842,22.1382416 0.483634587,22.500447 C0.861627316,23.170771 1.43383247,23.7112097 2.12506106,24.0507484 C3.94469956,25.0483744 6.34587201,25.3762327 8.47034685,25.371549 C8.51556816,25.3234115 8.57784087,25.294837 8.64386908,25.2919262 C9.71302289,25.2912031 10.7811421,25.22551 11.8423058,25.0952113 L11.9736199,25.0952113 C12.4144602,25.0155885 12.9584758,24.9359658 13.5446996,24.8516594 C13.8776746,24.7907714 14.2059599,24.7205161 14.5295554,24.645577 L15.209575,24.4769642 C15.6035173,24.373923 15.9974597,24.2615144 16.3867123,24.1397385 L16.5555447,24.0882179 L16.616512,24.0882179 L17.2214949,23.8868192 C17.7236416,23.7143874 18.1574529,23.38617 18.4595994,22.9500812 C20.7553875,19.4984205 24.1644661,16.9350207 28.1205667,15.685678 C28.3878847,15.6013715 28.6645823,15.5217488 28.9319003,15.4514935 C29.4008793,15.3344012 29.8370298,15.2360437 30.2919394,15.1517373 C31.9871983,14.8457222 33.2559392,13.4260399 33.3684416,11.7092251 C33.4153395,11.0394574 33.4528578,10.3603224 33.4763068,9.68118733 C33.4763068,9.46886004 33.4763068,9.25653276 33.4763068,9.04420548 C33.4763068,8.9880012 33.4763068,8.93179692 33.4763068,8.87559264 C33.4903762,8.50558112 33.4763068,8.11683485 33.4575476,7.74213965 Z" id="Shape" fill="url(#linearGradient-6)"></path>
            <path d="M33.4575476,7.74213965 C33.3121641,4.65558791 33.6029311,1.71891425 32.2804104,0.688502437 C31.9200094,0.434197673 31.5252459,0.232341617 31.1079629,0.0889901109 C30.8923725,0.0306502247 30.6700656,0.000732927663 30.4467025,0 C29.4118083,0.00847880477 28.4755009,0.614825916 28.04553,1.5549851 C27.8954931,1.8878387 27.8172001,2.24847588 27.8157303,2.61349905 C27.8109417,2.70711181 27.8109417,2.80090769 27.8157303,2.89452045 C27.8344895,3.10372527 27.8532487,3.31136886 27.8720078,3.51745122 C27.9939424,4.9881299 28.0549096,6.45880857 28.0549096,7.88733404 C28.0549096,8.10746747 28.0549096,8.3276009 28.0549096,8.55241802 L28.0549096,8.73039825 C28.0549096,8.98331751 28.0549096,9.24092046 28.0549096,9.5032071 L27.3186126,9.72334054 C23.8526818,10.817618 20.6676674,12.6542118 17.9859306,15.1049004 C17.0904476,15.9245186 16.2550782,16.8073244 15.4862726,17.7465016 C13.1510053,18.4721899 10.7190788,18.8401365 8.27337567,18.8378014 C6.62717412,18.8379316 4.98518956,18.6715929 3.37254519,18.3413302 C3.19733422,18.2983327 3.01820245,18.2732241 2.83790914,18.2663912 C2.05034028,18.267423 1.30434749,18.6195196 0.803556638,19.226573 C0.302765787,19.8336263 0.0994642354,20.6322542 0.24914509,21.4044635 C0.317928676,21.7729138 0.396091842,22.1382416 0.483634587,22.500447 C0.861627316,23.170771 1.43383247,23.7112097 2.12506106,24.0507484 C3.94469956,25.0483744 6.34587201,25.3762327 8.47034685,25.371549 C8.51556816,25.3234115 8.57784087,25.294837 8.64386908,25.2919262 C9.71302289,25.2912031 10.7811421,25.22551 11.8423058,25.0952113 L11.9736199,25.0952113 C12.4144602,25.0155885 12.9584758,24.9359658 13.5446996,24.8516594 C13.8776746,24.7907714 14.2059599,24.7205161 14.5295554,24.645577 L15.209575,24.4769642 C15.6035173,24.373923 15.9974597,24.2615144 16.3867123,24.1397385 L16.5555447,24.0882179 L16.616512,24.0882179 L17.2214949,23.8868192 C17.7236416,23.7143874 18.1574529,23.38617 18.4595994,22.9500812 C20.7553875,19.4984205 24.1644661,16.9350207 28.1205667,15.685678 C28.3878847,15.6013715 28.6645823,15.5217488 28.9319003,15.4514935 C29.4008793,15.3344012 29.8370298,15.2360437 30.2919394,15.1517373 C31.9871983,14.8457222 33.2559392,13.4260399 33.3684416,11.7092251 C33.4153395,11.0394574 33.4528578,10.3603224 33.4763068,9.68118733 C33.4763068,9.46886004 33.4763068,9.25653276 33.4763068,9.04420548 C33.4763068,8.9880012 33.4763068,8.93179692 33.4763068,8.87559264 C33.4903762,8.50558112 33.4763068,8.11683485 33.4575476,7.74213965 Z" id="Shape" fill="url(#linearGradient-7)"></path>
        </g>
    </g>
</svg>